Coordinates
version=1
nRows=24
nColumns=24
inDegrees=yes

Units are S.I. units (second, meters, Newtons, ...)
Angles are in degrees.

endheader
time	pelvis_tilt	pelvis_list	pelvis_rotation	pelvis_tx	pelvis_ty	pelvis_tz	hip_flexion_r	hip_adduction_r	hip_rotation_r	knee_angle_r	ankle_angle_r	subtalar_angle_r	mtp_angle_r	hip_flexion_l	hip_adduction_l	hip_rotation_l	knee_angle_l	ankle_angle_l	subtalar_angle_l	mtp_angle_l	lumbar_extension	lumbar_bending	lumbar_rotation
      4.48000000	    -11.34713097	      7.28622442	      1.76617389	     -0.24065752	     -0.01773742	      0.61029844	     25.82969587	    -12.50821399	     -4.26699309	    -63.48476824	     -5.49046890	     -1.59607102	     13.69396910	     19.53370764	     12.72799540	    -10.66170624	    -16.57553639	      3.06662468	      9.34153516	     -3.59032692	      9.21894229	     -9.09660854	     -2.50207694
      4.48500000	    -11.35739858	      6.97358069	      2.14276810	     -0.23478380	     -0.01690992	      0.60963590	     26.49629025	    -12.28848346	     -4.57206617	    -63.03835242	     -5.20628128	     -1.32980296	     13.82522146	     18.84570802	     12.62061365	     -9.98122839	    -16.13901588	      3.24438005	      9.26897986	     -3.74297144	      9.15849247	     -8.84615282	     -3.04898286
      4.49000000	    -11.30176126	      6.74136749	      2.58272599	     -0.22891029	     -0.01612225	      0.60890313	     27.07039794	    -12.20126818	     -4.95616681	    -62.54963659	     -4.97545222	     -1.23397867	     13.97467647	     18.04389827	     12.62920686	     -9.02742689	    -15.63686607	      3.40097390	      9.00290580	     -4.05705284	      9.01194401	     -8.69648609	     -3.63770667
      4.49500000	    -11.28466541	      6.48549635	      2.98808871	     -0.22301617	     -0.01541382	      0.60822369	     27.66915635	    -12.06441988	     -5.29508334	    -61.97553601	     -4.74782177	     -1.11772234	     14.09063580	     17.30666319	     12.57173362	     -8.23805206	    -15.16787294	      3.56395009	      8.84234842	     -4.31936469	      8.92757968	     -8.51177976	     -4.16834324
      4.50000000	    -11.25283028	      6.24765535	      3.39185172	     -0.21714172	     -0.01476430	      0.60757180	     28.23946678	    -11.94453530	     -5.63014755	    -61.34238619	     -4.55223194	     -1.07990240	     14.16040987	     16.55555074	     12.51638694	     -7.44066451	    -14.69756835	      3.72578501	      8.67202044	     -4.58900834	      8.82603903	     -8.34680485	     -4.68850861
      4.50500000	    -11.21565277	      6.02792399	      3.78489157	     -0.21124065	     -0.01417056	      0.60692842	     28.78526254	    -11.84371061	     -5.96258910	    -60.64345596	     -4.36515993	     -1.09024170	     14.17819278	     15.79392709	     12.46375046	     -6.65834833	    -14.21666432	      3.87522060	      8.48743970	     -4.87795271	      8.72954392	     -8.19607555	     -5.15938927
      4.51000000	    -11.18518232	      5.81270156	      4.17047984	     -0.20538484	     -0.01366662	      0.60633978	     29.33040938	    -11.73550156	     -6.26895877	    -59.89314128	     -4.20145781	     -1.13908478	     14.11842496	     15.05952140	     12.38967671	     -5.93198051	    -13.76200051	      4.04381570	      8.36431961	     -5.10870748	      8.63485903	     -8.05485455	     -5.65017893
      4.51500000	    -11.18501374	      5.57294153	      4.53082896	     -0.19954583	     -0.01325277	      0.60579658	     29.89450458	    -11.58379354	     -6.54378619	    -59.07176178	     -4.06827516	     -1.21737588	     13.99844613	     14.38757448	     12.26022172	     -5.32978136	    -13.34384392	      4.22706129	      8.33840165	     -5.23122371	      8.57904247	     -7.87933241	     -6.12109279
      4.52000000	    -11.10393684	      5.41588380	      4.90946496	     -0.19375113	     -0.01286474	      0.60524218	     30.36173389	    -11.53687557	     -6.83828679	    -58.22843956	     -3.92067596	     -1.38219088	     13.76333426	     13.59370961	     12.21863958	     -4.55746235	    -12.86931294	      4.38058468	      8.17003738	     -5.46233511	      8.41256186	     -7.79194404	     -6.60939606
      4.52500000	    -11.05470797	      5.25322895	      5.27273445	     -0.18788704	     -0.01255974	      0.60473880	     30.83374310	    -11.47720959	     -7.12565941	    -57.31128601	     -3.78505863	     -1.56196625	     13.43864518	     12.84736991	     12.14862487	     -3.87703621	    -12.41876995	      4.54796131	      8.04863611	     -5.66080359	      8.30601867	     -7.70727911	     -7.04292121
      4.53000000	    -10.99867687	      5.09750832	      5.61656847	     -0.18200830	     -0.01231899	      0.60422535	     31.27851560	    -11.42369295	     -7.40964499	    -56.33710623	     -3.64279090	     -1.75539943	     13.00456656	     12.09818647	     12.07000910	     -3.23013793	    -11.97212264	      4.71156884	      7.93631966	     -5.85175782	      8.19581299	     -7.61162777	     -7.42598925
      4.53500000	    -10.95607003	      4.94856075	      5.94275474	     -0.17621345	     -0.01217410	      0.60380042	     31.73471638	    -11.35495591	     -7.64962094	    -55.31497514	     -3.55015966	     -2.02312884	     12.53329119	     11.39337325	     11.97317582	     -2.66043711	    -11.56191254	      4.90235677	      7.90600841	     -5.97380283	      8.08488848	     -7.52891438	     -7.85093249
      4.54000000	    -10.94915096	      4.77506502	      6.23426569	     -0.17035049	     -0.01211072	      0.60339735	     32.19988550	    -11.25317124	     -7.88982310	    -54.20758485	     -3.48015352	     -2.33508879	     12.09686589	     10.74388170	     11.83376204	     -2.20109614	    -11.17251561	      5.09949260	      7.92785785	     -6.04139495	      8.03596309	     -7.41127693	     -8.17436526
      4.54500000	    -10.79889160	      4.69865876	      6.54525777	     -0.16450511	     -0.01201889	      0.60295080	     32.48714508	    -11.27305561	     -8.15731446	    -53.10538125	     -3.28629120	     -2.47108509	     11.20224866	      9.88831401	     11.79295681	     -1.52086173	    -10.71471810	      5.26803174	      7.74186949	     -6.28156487	      7.80446462	     -7.38189693	     -8.53744032
      4.55000000	    -10.84689353	      4.56260707	      6.78754309	     -0.15868173	     -0.01220272	      0.60263716	     32.99858005	    -11.19042348	     -8.34923884	    -51.91450263	     -3.27411821	     -2.91036335	     10.74783200	      9.33042688	     11.66625845	     -1.17036320	    -10.37030322	      5.51688762	      7.83665653	     -6.29598003	      7.81105349	     -7.29895752	     -8.81199317
      4.55500000	    -10.67455218	      4.48385270	      7.08724496	     -0.15285603	     -0.01218639	      0.60225669	     33.20286283	    -11.20083788	     -8.63970458	    -50.68257525	     -3.09397304	     -3.07280146	      9.69532315	      8.48827037	     11.58860562	     -0.59792610	     -9.96983184	      5.70051662	      7.75244150	     -6.50717376	      7.54653336	     -7.26529995	     -9.16052024
      4.56000000	    -10.73175406	      4.36440324	      7.29885850	     -0.14702695	     -0.01250393	      0.60199194	     33.67829945	    -11.13011031	     -8.83565756	    -49.37867789	     -3.10479843	     -3.52572851	      9.16605407	      7.95618937	     11.46228891	     -0.28971795	     -9.64631246	      5.94984830	      7.82893117	     -6.53195811	      7.56164259	     -7.19313056	     -9.38567746
      4.56500000	    -10.56081788	      4.31145879	      7.55349909	     -0.14119457	     -0.01264239	      0.60167334	     33.85264850	    -11.15441474	     -9.12490315	    -48.05887773	     -2.94591216	     -3.68586227	      8.05464802	      7.13307896	     11.38452717	      0.20808921	     -9.27380358	      6.17873103	      7.80218169	     -6.73369678	      7.29652028	     -7.17250874	     -9.69016177
      4.57000000	    -10.56313861	      4.22856123	      7.75980560	     -0.13536562	     -0.01303932	      0.60144211	     34.21511005	    -11.12842223	     -9.37414241	    -46.67098319	     -2.90299906	     -4.05163805	      7.24857375	      6.54433134	     11.27798456	      0.56074131	     -8.96461219	      6.44364336	      7.84192056	     -6.83519729	      7.23708022	     -7.13212240	     -9.90109462
      4.57500000	    -10.51300660	      4.13913847	      7.95043941	     -0.12949385	     -0.01342886	      0.60120822	     34.48262793	    -11.09403116	     -9.65253415	    -45.21663837	     -2.83402910	     -4.30878882	      6.44682262	      5.89926874	     11.15169946	      0.90244185	     -8.65619033	      6.72012001	      7.87894868	     -6.94953948	      7.12276599	     -7.07010320	    -10.10105744
      4.58000000	    -10.46428044	      4.05813740	      8.12852360	     -0.12361339	     -0.01388557	      0.60099275	     34.72918892	    -11.06673715	     -9.94608889	    -43.72096049	     -2.74861768	     -4.50219201	      5.61002169	      5.26360370	     11.02848718	      1.24211093	     -8.36393650	      7.00762542	      7.90351110	     -7.08643306	      7.00812132	     -7.01246994	    -10.28020939
      4.58500000	    -10.39619057	      3.98253730	      8.27277732	     -0.11767403	     -0.01441163	      0.60079298	     34.93172719	    -11.03270003	    -10.24403388	    -42.19967891	     -2.55056674	     -4.48382090	      4.56909163	      4.60771294	     10.90620935	      1.58136996	     -8.08214888	      7.32834526	      7.85707886	     -7.31793828	      6.87958445	     -6.94629326	    -10.42455331
      4.59000000	    -10.44393400	      3.89911764	      8.42059975	     -0.11175981	     -0.01508136	      0.60059347	     35.24690879	    -11.00990423	    -10.58441899	    -40.61029819	     -2.56201469	     -4.69648494	      4.04458235	      4.10878821	     10.78448253	      1.80311800	     -7.83827264	      7.61251578	      7.92588451	     -7.36960973	      6.88000059	     -6.88563326	    -10.57366439
      4.59500000	    -10.39612857	      3.80378229	      8.57689270	     -0.10580739	     -0.01570484	      0.60041876	     35.41286515	    -10.97003209	    -10.98266057	    -38.97419272	     -2.49054450	     -4.75863025	      3.40901928	      3.50958087	     10.63002351	      2.08169703	     -7.60820355	      7.93386951	      7.98331326	     -7.47114785	      6.77069220	     -6.80586088	    -10.72549250
